<?xml version="1.0" standalone="no"?>
<!DOCTYPE svg PUBLIC "-//W3C//DTD SVG 20010904//EN"
 "http://www.w3.org/TR/2001/REC-SVG-20010904/DTD/svg10.dtd">
<svg version="1.0" xmlns="http://www.w3.org/2000/svg"
 width="240.000000pt" height="240.000000pt" viewBox="0 0 240.000000 240.000000"
 preserveAspectRatio="xMidYMid meet">
<metadata>
Created by potrace 1.14, written by Peter Selinger 2001-2017
</metadata>
<g transform="translate(0.000000,240.000000) scale(0.100000,-0.100000)"
fill="#000000" stroke="none">
<path d="M0 1206 l0 -473 119 0 118 1 1 255 c0 141 1 263 1 271 1 8 27 -30 59
-85 90 -153 227 -386 249 -422 19 -31 19 -32 32 -10 16 25 239 403 256 432 18
32 57 95 59 95 1 0 1 -120 1 -267 l0 -268 438 -1 c240 0 437 2 437 5 0 3 -11
24 -24 46 -14 22 -32 54 -41 72 -31 59 -26 58 -309 58 l-261 0 -1 101 -1 101
209 -1 c114 -1 208 1 208 3 0 3 -24 44 -53 93 l-52 87 -156 1 -156 0 1 98 1
97 92 0 c51 0 94 3 97 6 3 2 -19 43 -47 89 l-53 85 -164 3 -165 2 -75 -131
c-41 -72 -82 -143 -90 -157 -88 -157 -163 -283 -165 -280 -3 3 -128 219 -171
295 -13 24 -53 95 -90 158 l-66 115 -119 0 -119 0 0 -474z"/>
<path d="M1270 1673 c0 -3 18 -34 40 -69 22 -35 40 -66 40 -69 0 -4 7 -14 17
-23 13 -14 41 -16 182 -17 l166 0 2 -255 c1 -140 2 -271 3 -291 0 -22 13 -57
36 -95 20 -32 45 -75 56 -94 11 -19 22 -36 23 -38 2 -2 29 41 62 94 l58 98 2
286 c0 157 2 287 2 290 1 3 73 6 162 5 88 0 164 2 168 5 4 3 31 44 59 93 l52
87 -565 0 c-311 0 -565 -3 -565 -7z"/>
</g>
</svg>
